# xmcd
#
# Track frame offsets:
#	150
#	10982
#	22640
#	34970
#	46582
#	58265
#	70092
#	82485
#	95642
#	113977
#	124070
#	134652
#	147452
#	161650
#	175787
#	187985
#	198627
#	213682
#
# Disc length: 3042
#
# Revision: 4
# Processed by: cddbd v1.5.1PL0 Copyright (c) Steve Scherf et al.
# Submitted via: ExactAudioCopy v0.90b4
# Normalized: r2:DSETVAR1,TDELIM( - ),TSWAP
#
DISCID=0e0be012
DTITLE=Various Artist - By Request (Country's All-Time Best-Loved Songs and Stars - Disc 4
DYEAR=2002
DGENRE=Country
TTITLE0=The Everly Brothers - Bye Bye Love
TTITLE1=Don Gibson - Sea Of Heartbreak
TTITLE2=Loretta Lynn - Blue Kentucky Girl
TTITLE3=Ray Price - Make The World Go Away
TTITLE4=Patsy Cline - Lonely Street
TTITLE5=Johnny Cash - I Still Miss Someone
TTITLE6=B.J. Thomas - I'm So Lonesome I Could Cry
TTITLE7=Tanya Tucker - Delta Dawn
TTITLE8=Marty Robbins - You Gave Me A Mountain
TTITLE9=Frankie Laine - I Believe
TTITLE10=Ferlin Husky - Wings Of A Dove
TTITLE11=Patsy Cline - Just A Closer Walk With Thee
TTITLE12=Johnny Lee - Amazing Grace
TTITLE13=The Gatlin Brothers - I'll Fly Away
TTITLE14=Lee Greenwood - You'll Never Walk Alone
TTITLE15=Johnny Cash - Daddy Sang Bass
TTITLE16=The Statler Brothers - How Great Thou Art
TTITLE17=The Jordanaires - (There'll Be) Peace In The Valley (For Me)
EXTD=A461355\nA61359\nSSFLM03600-4
EXTT0=
EXTT1=
EXTT2=
EXTT3=
EXTT4=
EXTT5=
EXTT6=
EXTT7=
EXTT8=
EXTT9=
EXTT10=
EXTT11=
EXTT12=
EXTT13=
EXTT14=
EXTT15=
EXTT16=
EXTT17=
PLAYORDER=
